<svg width="40" height="40" viewBox="0 0 40 40" fill="none" xmlns="http://www.w3.org/2000/svg">
<rect width="40" height="40" rx="5" fill="url(#paint0_linear_101_142)"/>
<path fill-rule="evenodd" clip-rule="evenodd" d="M0 34V35C0 37.7614 2.23858 40 5 40H35C37.7614 40 40 37.7614 40 35V34C40 36.7614 37.7614 39 35 39H5C2.23858 39 0 36.7614 0 34Z" fill="black" fill-opacity="0.2"/>
<rect x="5" y="30" width="24" height="4" rx="2" fill="url(#paint1_linear_101_142)"/>
<rect x="4.5" y="29.5" width="25" height="5" rx="2.5" stroke="black" stroke-opacity="0.1"/>
<rect x="5" y="22" width="30" height="4" rx="2" fill="url(#paint2_linear_101_142)"/>
<rect x="4.5" y="21.5" width="31" height="5" rx="2.5" stroke="black" stroke-opacity="0.1"/>
<rect x="5" y="14" width="30" height="4" rx="2" fill="url(#paint3_linear_101_142)"/>
<rect x="4.5" y="13.5" width="31" height="5" rx="2.5" stroke="black" stroke-opacity="0.1"/>
<rect x="5" y="6" width="30" height="4" rx="2" fill="url(#paint4_linear_101_142)"/>
<rect x="4.5" y="5.5" width="31" height="5" rx="2.5" stroke="black" stroke-opacity="0.1"/>
<defs>
<linearGradient id="paint0_linear_101_142" x1="0" y1="0" x2="40" y2="40" gradientUnits="userSpaceOnUse">
<stop stop-color="#3DAEE9"/>
<stop offset="1" stop-color="#1ABC9C"/>
</linearGradient>
<linearGradient id="paint1_linear_101_142" x1="17" y1="20" x2="30.1692" y2="33.764" gradientUnits="userSpaceOnUse">
<stop/>
<stop offset="1" stop-color="#2C3136"/>
</linearGradient>
<linearGradient id="paint2_linear_101_142" x1="20" y1="12" x2="32.7247" y2="28.6243" gradientUnits="userSpaceOnUse">
<stop/>
<stop offset="1" stop-color="#2C3136"/>
</linearGradient>
<linearGradient id="paint3_linear_101_142" x1="20" y1="4" x2="32.7247" y2="20.6243" gradientUnits="userSpaceOnUse">
<stop/>
<stop offset="1" stop-color="#2C3136"/>
</linearGradient>
<linearGradient id="paint4_linear_101_142" x1="20" y1="-4" x2="32.7247" y2="12.6243" gradientUnits="userSpaceOnUse">
<stop/>
<stop offset="1" stop-color="#2C3136"/>
</linearGradient>
</defs>
</svg>
