<svg width="50" height="50" viewBox="0 0 50 50" fill="none" xmlns="http://www.w3.org/2000/svg">
<rect y="5" width="50" height="40" rx="5" fill="url(#paint0_linear_103_42)"/>
<path fill-rule="evenodd" clip-rule="evenodd" d="M0 39V40C0 42.7614 2.23858 45 5 45H45C47.7614 45 50 42.7614 50 40V39C50 41.7614 47.7614 44 45 44H5C2.23858 44 0 41.7614 0 39Z" fill="black" fill-opacity="0.2"/>
<rect x="5" y="35" width="30" height="4" rx="2" fill="url(#paint1_linear_103_42)"/>
<rect x="4.5" y="34.5" width="31" height="5" rx="2.5" stroke="black" stroke-opacity="0.1"/>
<rect x="27" y="27" width="19" height="4" rx="2" fill="url(#paint2_linear_103_42)"/>
<rect x="26.5" y="26.5" width="20" height="5" rx="2.5" stroke="black" stroke-opacity="0.1"/>
<rect x="28" y="19" width="18" height="4" rx="2" fill="url(#paint3_linear_103_42)"/>
<rect x="27.5" y="18.5" width="19" height="5" rx="2.5" stroke="black" stroke-opacity="0.1"/>
<rect x="28" y="11" width="18" height="4" rx="2" fill="url(#paint4_linear_103_42)"/>
<rect x="27.5" y="10.5" width="19" height="5" rx="2.5" stroke="black" stroke-opacity="0.1"/>
<rect x="4" y="15" width="20" height="4" rx="2" fill="url(#paint5_linear_103_42)"/>
<rect x="3.5" y="14.5" width="21" height="5" rx="2.5" stroke="black" stroke-opacity="0.1"/>
<rect x="4" y="23" width="20" height="4" rx="2" fill="url(#paint6_linear_103_42)"/>
<rect x="3.5" y="22.5" width="21" height="5" rx="2.5" stroke="black" stroke-opacity="0.1"/>
<rect x="8" y="11" width="4" height="20" rx="2" fill="url(#paint7_linear_103_42)"/>
<rect x="7.5" y="10.5" width="5" height="21" rx="2.5" stroke="black" stroke-opacity="0.1"/>
<rect x="16" y="11" width="4" height="20" rx="2" fill="url(#paint8_linear_103_42)"/>
<rect x="15.5" y="10.5" width="5" height="21" rx="2.5" stroke="black" stroke-opacity="0.1"/>
<defs>
<linearGradient id="paint0_linear_103_42" x1="0" y1="5" x2="39.0244" y2="53.7805" gradientUnits="userSpaceOnUse">
<stop stop-color="#3DAEE9"/>
<stop offset="1" stop-color="#1ABC9C"/>
</linearGradient>
<linearGradient id="paint1_linear_103_42" x1="20" y1="25" x2="32.7247" y2="41.6243" gradientUnits="userSpaceOnUse">
<stop/>
<stop offset="1" stop-color="#2C3136"/>
</linearGradient>
<linearGradient id="paint2_linear_103_42" x1="36.5" y1="17" x2="49.449" y2="27.7143" gradientUnits="userSpaceOnUse">
<stop/>
<stop offset="1" stop-color="#2C3136"/>
</linearGradient>
<linearGradient id="paint3_linear_103_42" x1="37" y1="9" x2="49.8007" y2="19.0341" gradientUnits="userSpaceOnUse">
<stop/>
<stop offset="1" stop-color="#2C3136"/>
</linearGradient>
<linearGradient id="paint4_linear_103_42" x1="37" y1="1" x2="49.8007" y2="11.0341" gradientUnits="userSpaceOnUse">
<stop/>
<stop offset="1" stop-color="#2C3136"/>
</linearGradient>
<linearGradient id="paint5_linear_103_42" x1="14" y1="5" x2="27.0573" y2="16.3725" gradientUnits="userSpaceOnUse">
<stop/>
<stop offset="1" stop-color="#2C3136"/>
</linearGradient>
<linearGradient id="paint6_linear_103_42" x1="14" y1="13" x2="27.0573" y2="24.3725" gradientUnits="userSpaceOnUse">
<stop/>
<stop offset="1" stop-color="#2C3136"/>
</linearGradient>
<linearGradient id="paint7_linear_103_42" x1="10" y1="-39" x2="14.5869" y2="-38.8402" gradientUnits="userSpaceOnUse">
<stop/>
<stop offset="1" stop-color="#2C3136"/>
</linearGradient>
<linearGradient id="paint8_linear_103_42" x1="18" y1="-39" x2="22.5869" y2="-38.8402" gradientUnits="userSpaceOnUse">
<stop/>
<stop offset="1" stop-color="#2C3136"/>
</linearGradient>
</defs>
</svg>
